<?xml version="1.0" encoding="UTF-8"?><svg xmlns="http://www.w3.org/2000/svg" color-interpolation="auto" height="37.65" stroke="#000" stroke-linecap="square" stroke-miterlimit="10" width="110.5"><defs><clipPath id="a"><path d="M0 0V37.65H110.5V0Z"/></clipPath><clipPath clip-path="url(#a)" id="b"><path d="M-754.54 240.55h1440v-810h-1440Z"/></clipPath><clipPath clip-path="url(#b)" id="c"><path d="M5 4.95H105.5V32.7H5Z"/></clipPath></defs><g><g fill="#fff" stroke="none"><path clip-path="url(#c)" d="M91.87 14.54c0 .08 0 .08-.08.16-.63-.08-1.18-.08-1.81-.16-1.42-.16-2.84-.32-4.25-.4-1.65-.16-3.31-.24-5.04-.32-1.1-.08-2.21-.24-3.31-.32-1.89-.16-3.78-.24-5.59-.4-1.65-.08-3.23-.16-4.88-.24-.79 0-1.65 0-2.44-.08-1.65 0-3.31-.08-4.88-.08-.87 0-1.65 0-2.52 0-.79 0-1.65 0-2.44.08-1.1 0-2.21 0-3.31 0-1.18 0-2.44.08-3.62.16-1.26.08-2.52.08-3.78.16-.08 0-.16 0-.24 0-.87 0-1.73 0-2.6.08-.47 0-.95.16-1.42.16-.87 0-1.73-.08-2.6 0-2.05.16-4.1.32-6.22.48-1.34.08-2.6.16-3.94.24-1.18.08-2.36.24-3.62.32-1.18.16-2.36.32-3.62.4-1.5.16-2.99.4-4.49.56-1.42.16-2.76.24-4.17.48-1.58.24-3.23.56-4.8.87-.47.08-.95.16-1.02.72-.08.48-.16 1.03 0 1.51s.47 1.03.87 1.19c.55.24 1.18.16 1.81.16.87-.08 1.73-.24 2.6-.32 1.1-.16 2.28-.24 3.39-.4.95-.08 1.97-.16 2.91-.32s1.97-.32 2.91-.4c.79-.08 1.58-.08 2.36-.16 1.34-.16 2.68-.4 4.02-.56s2.76-.32 4.1-.4c1.26-.16 2.44-.24 3.7-.32 1.34-.08 2.68-.08 4.1-.16.08 0 .08 0 .16 0 .79-.16 1.65-.32 2.44-.32.63 0 1.34.16 1.97.16.71 0 1.42-.16 2.21-.16.87 0 1.73.08 2.6 0 .79 0 1.58-.16 2.44-.24.79-.08 1.58 0 2.44-.08.63 0 1.26-.16 1.81-.16.71 0 1.42.08 2.13.08 1.58.08 3.15.08 4.73.16.63 0 1.26 0 1.89.08.63 0 1.34.08 1.97.16 1.02 0 2.05 0 3.07 0 1.34 0 2.68 0 4.02 0 .47 0 .87.08 1.34.16.71.08 1.5.24 2.21.24.87.08 1.81 0 2.68.08 1.5.08 2.99.24 4.49.4 1.02.08 2.05.16 3.07.32.79.08 1.58.24 2.36.32.87.08 1.73.16 2.68.32 1.65.24 3.23.56 4.88.79.16 0 .47.16.47.32 0 .24-.08.64-.24.72-.79.64-1.73 1.19-2.52 1.75-.87.64-1.81 1.27-2.68 1.91-.39.32-.79.56-1.26.79-.87.56-1.73 1.03-2.6 1.51-1.89.72-1.65 2.22-1.5 3.89.08 0 0 0 0 0 0 .32-.08.72.08.95.24.56.79.95 1.42 1.11.32.08.71.16 1.02 0 .32-.08.55-.32.79-.56.39-.4.95-.79 1.1-1.27.32-1.03 1.02-1.59 1.73-2.22.63-.48 1.42-.79 2.13-1.27 1.02-.72 1.97-1.43 2.99-2.15.71-.48 1.42-.95 2.05-1.43.79-.56 1.58-1.27 2.36-1.75.39-.24 1.02-.32 1.5-.48.24-.08.39-.24.55-.32s.24-.16.39-.24c.39-.32.79-.56 1.1-.87.16-.16-.16-.79.47-.64 0 0 .08-.08.08-.16 0-.4-.16-.87 0-1.19.47-.72.39-1.43 0-2.07-.32-.48-.87-.87-1.34-1.19-.24-.16-.55-.08-.87-.16-.24-.08-.39-.32-.55-.32-1.02-.32-2.05-.48-2.99-.87-1.02-.4-1.89-1.03-2.91-1.43-.87-.4-1.73-.72-2.68-1.03-.63-.24-1.34-.4-1.97-.64-1.1-.4-2.21-.87-3.23-1.27-.87-.32-1.81-.72-2.68-1.03-.39-.16-.87-.24-1.34-.4-.71-.32-1.42-.72-2.21-1.03-.63-.32-1.18-.64-1.81-.87-.47-.24-1.02-.64-1.5-.56-.87.16-1.58.72-1.81 1.59 0 .08.08.24.16.32 0 .08 0 .16 0 .24-.55-.08-.39.32-.32.56 0 .24.24.48.24.72.16.79.79 1.11 1.42 1.35.55.16 1.02.24 1.58.4.39.08.79.24 1.18.4.16.08.32 0 .47 0 .39.16.71.32 1.1.48.71.32 1.42.64 2.13.95.79.32 1.58.48 2.36.79.87.32 1.65.64 2.44.95s1.42.56 2.05.72Z"/><path clip-path="url(#c)" d="M91.87 14.54c-.63-.24-1.26-.48-1.89-.72-.87-.32-1.65-.72-2.44-.95-.79-.32-1.58-.48-2.36-.79-.71-.24-1.42-.64-2.13-.95-.47-.16-.79-.32-1.18-.48-.16-.08-.32 0-.47 0-.39-.08-.79-.24-1.18-.4-.55-.16-1.02-.24-1.58-.4-.71-.24-1.34-.48-1.42-1.35-.08-.24-.24-.48-.24-.72s-.16-.64.32-.56c0-.08 0-.16 0-.24s-.16-.24-.16-.32c.32-.95 1.02-1.43 1.81-1.59.47-.08 1.02.32 1.5.56.63.24 1.26.56 1.81.87.71.32 1.42.72 2.21 1.03.39.16.87.24 1.34.4.95.32 1.81.64 2.68 1.03 1.1.4 2.13.87 3.23 1.27.63.24 1.34.4 1.97.64.87.32 1.81.64 2.68 1.03 1.02.48 1.89 1.03 2.91 1.43.95.4 1.97.56 2.99.87.24.08.39.24.55.32.32.08.63 0 .87.16.47.32 1.02.72 1.34 1.19.39.64.47 1.35 0 2.07-.16.32 0 .79 0 1.19 0 .08-.08.16-.08.16-.63-.08-.32.48-.47.64-.32.32-.71.56-1.1.87-.16.08-.24.16-.39.24s-.39.24-.55.32c-.47.16-1.1.16-1.5.48-.87.48-1.58 1.19-2.36 1.75-.71.48-1.34.95-2.05 1.43-1.02.72-1.97 1.43-2.99 2.15-.71.48-1.5.72-2.13 1.27-.71.56-1.5 1.19-1.73 2.22-.16.48-.71.87-1.1 1.27-.24.24-.47.48-.79.56s-.71 0-1.02 0c-.63-.16-1.1-.48-1.42-1.11-.16-.24-.08-.64-.08-.95 0 0 .08 0 0 0-.24-1.59-.39-3.1 1.5-3.89.87-.48 1.73-1.03 2.6-1.51.39-.24.87-.56 1.26-.79.87-.64 1.73-1.27 2.68-1.91.87-.56 1.73-1.11 2.52-1.75.16-.16.24-.48.24-.72 0-.08-.32-.24-.47-.32-1.65-.32-3.23-.56-4.88-.79-.87-.16-1.73-.16-2.68-.32-.79-.08-1.58-.24-2.36-.32-1.02-.08-2.05-.16-3.07-.32-1.5-.16-2.99-.32-4.49-.4-.87-.08-1.81 0-2.68-.08-.71-.08-1.5-.16-2.21-.24-.47-.08-.87-.08-1.34-.16-1.34 0-2.68 0-4.02 0-1.02 0-2.05 0-3.07 0-.63 0-1.34-.08-1.97-.16-.63 0-1.26 0-1.89-.08-1.58-.08-3.15-.08-4.73-.16-.71 0-1.42-.08-2.13-.08-.63 0-1.26.08-1.81.16-.79 0-1.58 0-2.44.08-.79.08-1.58.16-2.44.24-.87 0-1.73-.08-2.6 0-.71 0-1.42.16-2.21.16-.63 0-1.34-.16-1.97-.16-.79.08-1.65.24-2.44.32-.08 0-.08 0-.16 0-1.34.08-2.68.08-4.1.16-1.26.08-2.44.24-3.7.32-1.34.16-2.76.24-4.1.4s-2.68.4-4.02.56c-.79.08-1.58.08-2.36.16-.95.08-1.97.32-2.91.4-.95.16-1.97.24-2.91.32-1.1.16-2.28.24-3.39.4-.87.08-1.73.24-2.6.32-.63.08-1.26.08-1.81-.16-.39-.16-.71-.72-.87-1.19s-.08-1.03 0-1.51c.08-.64.55-.64 1.02-.72 1.58-.32 3.23-.64 4.8-.87 1.42-.24 2.76-.32 4.17-.48 1.5-.16 2.99-.4 4.49-.56 1.18-.16 2.36-.32 3.62-.4 1.18-.16 2.36-.24 3.62-.32 1.34-.08 2.6-.16 3.94-.24 2.05-.16 4.1-.32 6.22-.48.87-.08 1.73 0 2.6 0 .47 0 .95-.16 1.42-.16.87-.08 1.73-.08 2.6-.08.08 0 .16 0 .24 0 1.1-.08 2.36-.08 3.62-.16 1.18-.08 2.44-.08 3.62-.16 1.1 0 2.21 0 3.31 0 .79 0 1.65 0 2.44-.08.87 0 1.65-.08 2.52 0 1.65 0 3.31.08 4.88.08.79 0 1.65 0 2.44.08 1.65.08 3.23.16 4.88.24 1.89.08 3.78.24 5.59.4 1.1.08 2.21.24 3.31.32 1.65.16 3.31.16 5.04.32 1.42.08 2.84.32 4.25.4.63.08 1.18.08 1.81.16.08 0 .08-.08.16-.16Z"/></g></g></svg>