<?xml version="1.0" encoding="UTF-8"?><svg xmlns="http://www.w3.org/2000/svg" color-interpolation="auto" height="113.07" stroke="#000" stroke-linecap="square" stroke-miterlimit="10" width="106.5"><defs><clipPath id="a"><path d="M0 0V113.07H106.5V0Z"/></clipPath><clipPath clip-path="url(#a)" id="b"><path d="M-623.18 270.7h1440v-810h-1440Z"/></clipPath><clipPath clip-path="url(#b)" id="d"><path d="M0-.05H106.5V113.2H0Z"/></clipPath></defs><g><defs><linearGradient color-interpolation="linearRGB" gradientTransform="matrix(.73753 0 0 .73862 -10.694 -7.504)" gradientUnits="userSpaceOnUse" id="c" spreadMethod="pad" x1="3.343" x2="170.054" y1="52.923" y2="120.474"><stop offset="0%" stop-color="#fff"/><stop offset="50%" stop-color="#fff"/><stop offset="100%" stop-color="#fff"/></linearGradient></defs><g fill="url(#c)" stroke="url(#c)"><path clip-path="url(#d)" d="M22.84 111.08l60.82 0c-.31-.81-.98-1.63-1.96-2.38-1.69-1.28-4.45-2.37-7.32-2.37-.92 0-1.86.11-2.77.37-.09.02-.18.04-.27.04-.22 0-.44-.07-.62-.22-.25-.2-.39-.51-.37-.83 0-.06.01-.13.01-.19 0-2.96-2.96-4.45-4.23-4.95-1.4-.55-3.08-.87-4.77-.87-2.74 0-5.55.82-7.39 2.8-.19.2-.45.31-.71.31v0l-.01 0h-.03l-.02 0 0 0-.02 0 0 0c-.24-.01-.48-.12-.66-.31-1.84-1.98-4.64-2.8-7.39-2.8-1.7 0-3.37.32-4.77.87-1.27.5-4.23 1.99-4.23 4.95 0 .06 0 .13.01.2.02.32-.12.63-.37.82-.18.14-.4.22-.62.22-.09 0-.18-.01-.27-.04-.91-.25-1.85-.37-2.77-.37-2.87 0-5.63 1.08-7.32 2.37-.99.75-1.66 1.57-1.96 2.38ZM51.2 94.76c0 0 0 0 0 0-.55 0-.99-.44-.99-.99l0-10.16c0-.55.44-.99.99-.99 0 0 0 0 0 0 .55 0 .99.44.99.99l0 10.16c0 .55-.44.99-.99.99Zm4.1 0c0 0 0 0 0 0-.55 0-.99-.44-.99-.99l0-10.16c0-.55.44-.99.99-.99 0 0 0 0 0 0 .55 0 .99.44.99.99l0 10.16c0 .55-.44.99-.99.99Zm-2.06 5.67c1.62-1.39 3.67-2.2 5.8-2.54l0-19.29H47.46l0 19.29c2.13.33 4.18 1.14 5.79 2.53Zm7.64-23.81V74.05H49.16l-.02 0-.02 0H45.62v2.57Zm-4.51-4.55l0-6.15H50.13v6.15Zm22.27-2.33V57.35c0-6.4-4.94-11.66-11.2-12.17l0 19.43 11.2 5.12Zm-50.8 0L39.06 64.6l0-19.42c-6.27.51-11.21 5.77-11.21 12.17l0 12.38ZM53.12 44.5c2.69 0 4.87-2.19 4.87-4.88s-2.18-4.88-4.87-4.88-4.87 2.19-4.87 4.88 2.18 4.88 4.87 4.88Zm0 1.98c0 0 0 0 0 0-3.78 0-6.85-3.08-6.85-6.86s3.07-6.86 6.85-6.86c0 0 0 0 0 0 3.78 0 6.85 3.08 6.85 6.86s-3.07 6.86-6.85 6.86ZM65.46 72.06V65.27c0-.02 0-.04 0-.05V44.17l0-.02 0-.02V24.88H41.04V65.24v6.82h7.11l0-7.14c0-.55.44-.99.99-.99l8.22 0c.55 0 .99.44.99.99v7.14ZM64.74 22.9L53.26 2.98 41.77 22.9ZM.97 113.07c-.55 0-.99-.44-.99-.99s.44-.99.99-.99h19.8c.31-1.42 1.29-2.8 2.83-3.96 2.02-1.54 5.17-2.77 8.49-2.77.71 0 1.43.06 2.14.18.39-2.52 2.32-4.6 5.41-5.82 1.6-.63 3.5-.99 5.45-.99.13 0 .26 0 .39 0l0-19.12h-.84c-.55 0-.99-.44-.99-.99l0-3.56H40.05c-.55 0-.99-.44-.99-.99V66.78L27.27 72.18c-.13.06-.27.09-.41.09 0 0 0 0 0 0-.19 0-.37-.05-.54-.15-.28-.18-.45-.5-.45-.84l0-13.92c0-7.49 5.83-13.65 13.19-14.16V23.89c0-.2.06-.39.16-.55L52.4.5c.18-.31.5-.5.86-.5 0 0 0 0 0 0 .35 0 .68.19.86.5L67.3 23.37c.09.15.14.33.14.51V43.19c7.35.51 13.18 6.67 13.18 14.16l0 13.92c0 .34-.17.65-.46.84-.16.1-.35.15-.54.15 0 0 0 0 0 0-.14 0-.28-.03-.41-.09L67.44 66.79v6.27c0 .55-.44.99-.99.99 0 0 0 0 0 0H62.87l0 3.56c0 .55-.44.99-.99.99 0 0 0 0 0 0h-.84l0 19.12c.13 0 .25 0 .38 0 1.94 0 3.85.36 5.45.99 3.09 1.22 5.02 3.31 5.41 5.82.71-.12 1.43-.18 2.14-.18 3.32 0 6.47 1.24 8.49 2.77 1.54 1.17 2.51 2.55 2.83 3.96h19.8c.55 0 .99.44.99.99s-.44.99-.99.99v0Z" stroke="none"/></g></g></svg>