<svg xmlns="http://www.w3.org/2000/svg" width="109.75" height="98.32" stroke="#000" stroke-linecap="square" stroke-miterlimit="10" color-interpolation="auto"><defs><clipPath id="a"><path d="M0 0V98.32H109.75V0Z"/></clipPath><clipPath id="b" clip-path="url(#a)"><path d="M-484.5 498.2h1440v-810h-1440Z"/></clipPath><clipPath id="c" clip-path="url(#b)"><path d="M5 4.92h99.75v88.5H5Z"/></clipPath></defs><g><g fill="#fff" stroke="none"><path d="M36.83 18.68H64.17c.44 0 .79-.35.79-.79s-.35-.79-.79-.79H36.83c-.43 0-.79.35-.79.79s.35.79.79.79Z" clip-path="url(#c)"/><path d="M28.15 27.12H68.52c.44 0 .79-.35.79-.79s-.35-.79-.79-.79H28.15c-.43 0-.79.35-.79.79s.35.79.79.79Z" clip-path="url(#c)"/><path d="M68.52 34.19H28.15c-.43 0-.79.35-.79.79s.35.79.79.79H68.52c.44 0 .79-.35.79-.79s-.35-.79-.79-.79Z" clip-path="url(#c)"/><path d="M17.44 52.71v6.58c0 .44.35.79.79.79H28.9l5.4 3c.12.07.25.1.38.1.18 0 .35-.06.49-.17.25-.2.35-.53.26-.84l-.88-2.99V52.71c0-.44-.35-.79-.79-.79H18.22c-.44 0-.79.35-.79.79Zm1.57.79H32.98v5.79c0 .08.01.15.03.22l.37 1.25-3.9-2.17c-.12-.06-.25-.1-.38-.1H19.01V53.5Z" clip-path="url(#c)"/><path d="M31.09 56.04c0-.44-.35-.79-.79-.79H21.52c-.44 0-.79.35-.79.79s.35.79.79.79H30.3c.43 0 .79-.35.79-.79Z" clip-path="url(#c)"/><path d="M13.8 68.12H28.15c.44 0 .79-.35.79-.79s-.35-.79-.79-.79H13.8c-.44 0-.79.35-.79.79s.35.79.79.79Z" clip-path="url(#c)"/><path d="M13.8 72.82H28.15c.44 0 .79-.35.79-.79s-.35-.79-.79-.79H13.8c-.44 0-.79.35-.79.79s.35.79.79.79Z" clip-path="url(#c)"/><path d="M32.24 63.41H10.46c-.44 0-.79.35-.79.79V75.45L7.79 79.27c-.15.3-.09.67.14.91.15.15.35.24.56.24.11 0 .23-.03.34-.08l8.1-3.91H32.24c.44 0 .79-.35.79-.79V64.21c0-.44-.35-.79-.79-.79Zm-.79 11.43H16.75c-.12 0-.23.03-.34.08l-6.2 2.99.95-1.93c.05-.11.08-.23.08-.35V65H31.46v9.85Z" clip-path="url(#c)"/><path d="M102.48 28.53l.49-.83c.24-.42.31-.91.19-1.38s-.42-.87-.83-1.11l-1-.6 2.27-3.84c1.16-1.97.51-4.53-1.45-5.71l-.28-.17c-1.96-1.17-4.51-.51-5.67 1.46L93.94 20.2l-1.01-.6c-.86-.5-1.96-.21-2.47.64L88.7 23.23c-.25.42-.31.91-.19 1.38.07.28.21.52.39.73L76.72 45.99V5.79c0-.44-.35-.79-.79-.79H32.24c-.02 0-.03.01-.05.01-.07 0-.14.02-.21.04-.03.01-.05.02-.08.03-.06.03-.12.07-.18.12-.02.01-.03.02-.05.04 0 0-.01.01-.01.01L19.31 18.64c-.06.06-.1.14-.14.21-.01.02-.01.04-.02.06-.02.07-.04.14-.04.21 0 .02-.01.03-.01.05V39.04H11.19C7.78 39.04 5 41.84 5 45.27V87.09c0 3.43 2.78 6.23 6.19 6.23H31.84c3.41 0 6.19-2.79 6.19-6.23V84.02h37.9c.44 0 .79-.35.79-.79V69.72l14.52-24.6.91.55c.42.25.89.38 1.37.38.23 0 .47-.03.7-.09.76-.19 1.42-.7 1.82-1.39l7.19-12.18c.78-1.34.43-3.02-.77-3.86ZM97.56 17.17c.72-1.22 2.3-1.63 3.51-.9l.28.17c1.22.73 1.62 2.31.9 3.54l-2.27 3.84-1.96-1.17-1.64-.98c-.01 0-.01 0-.02-.01l-1.07-.64 2.26-3.84Zm-7.5 6.87l1.76-2.98c.07-.12.21-.15.32-.09l1.68 1.01c0 0 0 0 0 0s0 0 0 0l3.86 2.3 3.86 2.31c.07.04.09.1.1.14s.02.11-.02.18l-.88 1.49c0 0 0 0 0 0s0 0 0 0l-.88 1.48c-.07.12-.21.15-.33.09l-.16-.09c-.01-.01-.01-.02-.02-.02l-8.99-5.36-.01-.01c0 0 0 0 0 0s0 0 0 0l-.2-.12c-.07-.04-.09-.1-.1-.14s-.02-.11.02-.17Zm.24 19.6L74.63 70.17 66.98 65.6 90.21 26.23l7.66 4.57-7.57 12.83ZM65.52 76.89c-.02-.02-.36-.4-.24-2.55.93.17 1.75.68 2.47 1.55-1.76 1.09-2.25.99-2.23 1Zm3.54-1.89c-1.02-1.28-2.24-2.03-3.64-2.24.25-2.09.72-4.36 1-5.65l7.15 4.27c-1 .88-2.78 2.4-4.51 3.63ZM31.46 7.81V18.38H21.69L31.46 7.81Zm5 73.7H28.31 14.72 6.57V48.02h7.18l1.51 2.25c.15.22.39.35.65.35H27.11c.26 0 .51-.13.65-.35l1.51-2.25h7.18V81.51Zm-6.79 2.95v.21c0 .76-.61 1.37-1.36 1.37H14.72c-.75 0-1.35-.61-1.35-1.37v-.21c0-.76.61-1.37 1.35-1.37H28.31c.75 0 1.36.61 1.36 1.37ZM12.15 86.04H6.57V83.09h5.57c-.22.41-.35.87-.35 1.37v.21c0 .5.13.96.35 1.37Zm18.75 0c.22-.41.35-.87.35-1.37v-.21c0-.5-.13-.96-.35-1.37h5.57v2.94H30.89Zm7.14-3.6V63.87H57.55c.44 0 .79-.35.79-.79s-.35-.79-.79-.79H38.03V54.07H68.52c.44 0 .79-.35.79-.79s-.35-.79-.79-.79H38.03V45.27c0-.42-.04-.83-.12-1.23H55.93c.44 0 .79-.35.79-.79s-.35-.79-.79-.79H37.34c-1.04-2.09-3.14-3.42-5.5-3.42H20.67V19.97H32.24c.44 0 .79-.35.79-.79V6.58H75.15V48.66L65.23 65.47c-.02.04-.03.08-.04.12s-.04.06-.05.1c-.04.17-1.05 4.32-1.36 7.72-.26 2.84.02 4.29.93 4.83.24.14.51.21.83.21.88 0 2.1-.55 3.8-1.7 2.37-1.61 4.97-3.89 5.82-4.66V82.44H38.03Zm63.85-50.85L94.69 43.76c-.19.33-.51.57-.86.66-.31.08-.62.04-.88-.12l-.91-.55 7.22-12.23c.12.03.25.05.37.05.62 0 1.23-.32 1.56-.89l.47-.79c.45.39.56 1.11.22 1.69Z" clip-path="url(#c)"/></g></g></svg>