<?xml version="1.0" encoding="UTF-8"?><svg xmlns="http://www.w3.org/2000/svg" color-interpolation="auto" height="92.97" stroke="#000" stroke-linecap="square" stroke-miterlimit="10" width="96"><defs><clipPath id="a"><path d="M0 0V92.97H96V0Z"/></clipPath><clipPath clip-path="url(#a)" id="b"><path d="M-894.38 262.73h1440v-810h-1440Z"/></clipPath><clipPath clip-path="url(#b)" id="c"><path d="M0-.02H96v93H0Z"/></clipPath></defs><g><g fill="#fff" stroke="#fff"><path clip-path="url(#c)" d="M26.41 46.87c-3.79 0-6.86-3.08-6.86-6.88s3.07-6.88 6.86-6.88 6.86 3.08 6.86 6.88-3.07 6.88-6.86 6.88ZM51.87 36.44l-1.38-.21c-1.96-.29-3.6-1.63-4.28-3.5-.2-.56-.43-1.11-.68-1.64-.84-1.81-.63-3.93.55-5.53l.83-1.12c.33-.44.28-1.06-.11-1.45l-3.45-3.46c-.39-.39-1-.44-1.45-.11l-1.12.83c-1.6 1.19-3.71 1.39-5.51.55-.53-.25-1.08-.48-1.64-.68-1.86-.68-3.2-2.33-3.49-4.29l-.2-1.38c-.08-.55-.55-.95-1.1-.95H23.97c-.55 0-1.02.4-1.1.95l-.2 1.38c-.29 1.96-1.63 3.61-3.49 4.29-.56.2-1.1.43-1.64.68-1.8.84-3.92.63-5.51-.55l-1.12-.83c-.44-.33-1.06-.28-1.45.11L6.01 22.99c-.39.39-.43 1.01-.11 1.45l.83 1.12c1.18 1.6 1.39 3.72.55 5.53-.25.54-.47 1.08-.68 1.64-.68 1.87-2.32 3.21-4.28 3.5l-1.38.21c-.54.08-.95.55-.95 1.1v4.9c0 .55.4 1.02.95 1.1l1.38.21c1.96.29 3.6 1.63 4.28 3.5.2.56.43 1.11.68 1.64.84 1.81.63 3.93-.55 5.53L5.9 55.54c-.33.44-.28 1.06.11 1.45l3.45 3.46c.39.39 1 .44 1.45.11l1.12-.83c1.6-1.19 3.71-1.39 5.51-.55.53.25 1.08.47 1.64.68 1.86.68 3.2 2.33 3.49 4.29l.2 1.38c.08.55.55.95 1.1.95h4.88c.55 0 1.02-.4 1.1-.95l.2-1.38c.29-1.96 1.63-3.61 3.49-4.29.56-.2 1.1-.43 1.64-.68 1.8-.84 3.92-.63 5.51.55l1.12.83c.44.33 1.06.28 1.45-.11l3.45-3.46c.39-.39.43-1.01.11-1.45l-.83-1.12c-1.18-1.6-1.39-3.72-.55-5.53.25-.54.47-1.08.68-1.64.68-1.87 2.32-3.21 4.28-3.5l1.38-.21c.54-.08.95-.55.95-1.1v-4.9c0-.55-.4-1.02-.95-1.1ZM69.59 73.36c-3.79 0-6.86-3.08-6.86-6.88s3.07-6.88 6.86-6.88 6.86 3.08 6.86 6.88-3.07 6.88-6.86 6.88ZM95.05 62.93l-1.38-.21c-1.96-.29-3.6-1.63-4.28-3.5-.2-.56-.43-1.11-.68-1.64-.84-1.81-.63-3.93.55-5.53l.83-1.12c.33-.44.28-1.06-.11-1.45l-3.45-3.46c-.39-.39-1-.44-1.45-.11l-1.12.83c-1.6 1.19-3.71 1.39-5.51.55-.53-.25-1.08-.48-1.64-.68-1.86-.68-3.2-2.33-3.49-4.29l-.2-1.38c-.08-.55-.55-.95-1.1-.95H67.15c-.55 0-1.02.4-1.1.95l-.2 1.38c-.29 1.96-1.63 3.61-3.49 4.29-.56.2-1.1.43-1.64.68-1.8.84-3.92.63-5.51-.55l-1.12-.83c-.44-.33-1.06-.28-1.45.11l-3.45 3.46c-.39.39-.44 1.01-.11 1.45l.83 1.12c1.18 1.6 1.39 3.72.55 5.53-.25.54-.47 1.08-.68 1.64-.68 1.86-2.32 3.21-4.28 3.5l-1.38.21c-.54.08-.95.55-.95 1.1v4.9c0 .55.4 1.02.95 1.1l1.38.21c1.96.29 3.6 1.63 4.28 3.5.2.56.43 1.11.68 1.64.84 1.81.63 3.93-.55 5.53l-.83 1.12c-.33.44-.28 1.06.11 1.45l3.45 3.46c.39.39 1 .44 1.45.11l1.12-.83c1.6-1.19 3.71-1.39 5.51-.55.53.25 1.08.48 1.64.68 1.86.68 3.2 2.33 3.49 4.29l.2 1.38c.08.55.55.95 1.1.95h4.88c.55 0 1.02-.4 1.1-.95l.2-1.38c.29-1.96 1.63-3.61 3.49-4.29.56-.2 1.1-.43 1.64-.68 1.8-.84 3.92-.63 5.51.55l1.12.83c.44.33 1.06.28 1.45-.11l3.45-3.46c.39-.39.43-1.01.11-1.45l-.83-1.12c-1.18-1.6-1.39-3.72-.55-5.53.25-.54.47-1.08.68-1.64.68-1.87 2.32-3.21 4.28-3.5l1.38-.21c.54-.08.95-.55.95-1.1v-4.9c0-.55-.4-1.02-.95-1.1ZM65.74 24.33c-2.86 0-5.18-2.33-5.18-5.19s2.32-5.19 5.18-5.19 5.18 2.33 5.18 5.19-2.32 5.19-5.18 5.19Zm18.4-7.76l-1-.15c-1.41-.21-2.6-1.18-3.09-2.53-.15-.4-.31-.8-.49-1.19-.6-1.3-.46-2.84.4-3.99l.6-.81c.24-.32.2-.77-.08-1.05l-2.5-2.5c-.28-.28-.73-.32-1.05-.08l-.81.6c-1.15.86-2.68 1.01-3.98.4-.39-.18-.78-.34-1.18-.49-1.34-.49-2.31-1.68-2.52-3.1l-.15-1c-.06-.39-.4-.69-.79-.69H63.98c-.4 0-.74.29-.79.69l-.15 1c-.21 1.42-1.18 2.61-2.52 3.1-.4.15-.8.31-1.18.49-1.3.61-2.83.46-3.98-.4l-.81-.6c-.32-.24-.77-.21-1.05.08L51 6.86c-.28.28-.31.73-.08 1.05l.6.81c.85 1.16 1 2.69.4 3.99-.18.39-.34.78-.49 1.19-.49 1.35-1.68 2.32-3.09 2.53l-.99.15c-.39.06-.68.4-.68.8v3.54c0 .4.29.74.68.8l.99.15c1.41.21 2.6 1.18 3.09 2.53.15.4.31.8.49 1.19.61 1.31.46 2.84-.4 3.99l-.6.81c-.24.32-.2.77.08 1.05l2.5 2.5c.28.28.73.32 1.05.08l.81-.6c1.15-.86 2.68-1.01 3.98-.4.39.18.78.34 1.18.49 1.34.49 2.31 1.68 2.52 3.1l.15 1c.06.39.4.69.79.69h3.53c.4 0 .74-.29.79-.69l.15-1c.21-1.42 1.18-2.61 2.52-3.1.4-.15.8-.31 1.18-.49 1.3-.61 2.83-.46 3.98.4l.81.6c.32.24.76.21 1.05-.08l2.5-2.5c.28-.28.31-.73.08-1.05l-.6-.81c-.85-1.16-1-2.69-.4-3.99.18-.39.34-.78.49-1.19.49-1.35 1.68-2.32 3.09-2.53l1-.15c.39-.06.68-.4.68-.8V17.37c0-.4-.29-.74-.68-.8" stroke="none"/></g></g></svg>