<?xml version="1.0" encoding="UTF-8"?><svg xmlns="http://www.w3.org/2000/svg" color-interpolation="auto" height="123.25" stroke="#000" stroke-linecap="square" stroke-miterlimit="10" width="229.03"><defs><clipPath id="a"><path d="M0 0V123.25H229.03V0Z"/></clipPath><clipPath clip-path="url(#a)" id="b"><path d="M-365.97 283.31h1440v-810h-1440Z"/></clipPath><clipPath clip-path="url(#b)" id="e"><path d="M4.95 5h109.5V118.25H4.95Z"/></clipPath><clipPath id="c"><path d="M0 0V123.25H229.03V0Z"/></clipPath><clipPath clip-path="url(#c)" id="d"><path d="M-365.97 283.31h1440v-810h-1440Z"/></clipPath><clipPath clip-path="url(#d)" id="f"><path d="M123.53 47.71h100.5V75.46H123.53Z"/></clipPath></defs><g><g fill="#fff" stroke="none"><path clip-path="url(#e)" d="M23.94 49.44V35.85c0-.5-.4-.9-.9-.9H12.76c-.5 0-.9.4-.9.9V49.44c0 .5.4.9.9.9H23.04c.5 0 .9-.4.9-.9Zm-1.79-.9h-8.5V36.75h8.5V48.54Z"/><path clip-path="url(#e)" d="M60.77 30.43c-12.47 0-22.62 10.05-22.62 22.4s10.15 22.4 22.62 22.4 22.62-10.05 22.62-22.4-10.15-22.4-22.62-22.4Zm0 43.01c-11.48 0-20.82-9.24-20.82-20.61s9.34-20.61 20.82-20.61 20.82 9.24 20.82 20.61-9.34 20.61-20.82 20.61Z"/><path clip-path="url(#e)" d="M114.41 5.9c0-.5-.4-.9-.9-.9H99.42c-.24 0-.46.09-.63.26L83.66 20.24H16.19c-.5 0-.9.4-.9.9v7.02H5.9c-.5 0-.9.4-.9.9v88.29c0 .5.4.9.9.9H74.49c.5 0 .9-.4.9-.9v-7.02h9.39c.5 0 .9-.4.9-.9V66.21c2.19-3.98 3.43-8.54 3.43-13.37 0-5.12-1.4-9.92-3.83-14.06l2.83-2.8.99.98c.17.17.4.26.63.26s.46-.09.63-.26l3.21-3.17L114.08 17c.1-.08.18-.19.23-.3.02-.03.02-.07.03-.11.03-.08.05-.17.06-.25 0-.01.01-.03.01-.04V5.9h0Zm-14.62.9h12.83v9.08L93.01 31.9l-9.29-9.2L99.78 6.8ZM17.08 22.04H80.22l-2.45 2.43c-.17.17-.27.4-.27.64s.1.47.27.64l.97.96-2.6 2.57c-4.43-2.85-9.71-4.51-15.38-4.51-4.88 0-9.48 1.23-13.5 3.4H17.08V22.04Zm56.51 94.41H6.79V29.96H44.38C37.16 35.05 32.44 43.4 32.44 52.83c0 1.23.09 2.44.24 3.63H13.9c-.5 0-.9.4-.9.9v50.94c0 .5.4.9.9.9H66.49c.5 0 .9-.4.9-.9V80.12c2.18-.52 4.26-1.29 6.21-2.27v38.61h0ZM60.77 80.9c1.64 0 3.25-.15 4.82-.41V107.4H60.52V80.89c.08 0 .16.01.25.01Zm-2.04 26.5H53.66V80c1.64.42 3.33.69 5.07.81V107.4Zm-6.86 0H46.8V77.24c1.6.9 3.29 1.65 5.07 2.23V107.4Zm-6.86 0H39.95V71.84c1.51 1.62 3.21 3.07 5.07 4.31V107.4Zm-17.64 0v-6.9H38.15v6.9H27.37Zm-12.57 0V65.71H25.58V107.4H14.8Zm0-43.48V58.26H25.58v5.66H14.8ZM38.15 90H27.37v-6.9H38.15V90h0ZM27.37 91.8H38.15v6.9H27.37V91.8ZM38.15 81.31H27.37v-6.9H38.15v6.9h0Zm0-8.7H27.37v-6.9h8.24c.74 1.41 1.59 2.74 2.54 4v2.9Zm-10.78-8.7V58.26h5.6c.39 1.97.99 3.86 1.77 5.66H27.37Zm56.51 44.61h-8.5V76.87c3.35-2 6.24-4.68 8.5-7.83v39.49ZM60.77 79.1c-14.63 0-26.54-11.78-26.54-26.27s11.9-26.27 26.54-26.27S87.31 38.35 87.31 52.83 75.4 79.1 60.77 79.1ZM84.3 37.21c-1.8-2.66-4.05-4.99-6.64-6.9l2.36-2.34 6.81 6.74-2.53 2.5Zm5.42-2.16l-.99-.98-7.58-7.5c0 0 0 0 0 0l-1.48-1.46 1.96-1.94 10.04 9.94-1.96 1.94Z"/><path clip-path="url(#e)" d="M47.36 49.16c.08.01.16.01.24.01 1.65 0 3.04-1.26 3.17-2.92.06-.84-.2-1.65-.75-2.29s-1.33-1.04-2.18-1.1c-1.77-.13-3.28 1.18-3.41 2.91-.06.84.2 1.65.75 2.29s1.33 1.04 2.18 1.1Zm.24-4.52c.03 0 .07 0 .11 0 .37.03.71.2.96.48s.35.62.32.98c-.06.75-.72 1.31-1.49 1.26-.38-.03-.72-.2-.96-.48s-.35-.62-.32-.98c.05-.72.66-1.26 1.38-1.26Z"/><path clip-path="url(#e)" d="M49.85 56.71c-.2-.88-.22-1.78-.08-2.67.15-.95-.17-1.91-.86-2.57s-1.62-.91-2.56-.71l-.14.03c-.89.19-1.63.79-2 1.61-1.11 2.48-.78 4.8-.58 5.67.53 2.36 1.87 3.95 2.9 4.87.53.47 1.22.73 1.92.73.2 0 .4-.02.6-.06l.14-.03c.93-.2 1.7-.85 2.05-1.74.34-.86.24-1.83-.28-2.59-.71-1.04-1-2.04-1.11-2.54Zm-.27 4.46c-.13.33-.42.57-.77.65 0 0 0 0 0 0l-.14.03c-.34.07-.69-.02-.95-.25-.83-.74-1.92-2.02-2.34-3.91-.16-.7-.42-2.55.47-4.55.13-.3.41-.52.74-.59l.14-.03c.08-.02.16-.03.23-.03.26 0 .51.1.71.28.26.25.38.61.32.97-.18 1.12-.15 2.25.1 3.35.14.63.5 1.87 1.38 3.16.18.27.22.6.1.91Z"/><path clip-path="url(#f)" d="M210.4 57.29c0 .08 0 .08-.08.16-.63-.08-1.18-.08-1.81-.16-1.42-.16-2.84-.32-4.25-.4-1.65-.16-3.31-.24-5.04-.32-1.1-.08-2.21-.24-3.31-.32-1.89-.16-3.78-.24-5.59-.4-1.65-.08-3.23-.16-4.88-.24-.79 0-1.65 0-2.44-.08-1.65 0-3.31-.08-4.88-.08-.87 0-1.65 0-2.52 0-.79 0-1.65 0-2.44.08-1.1 0-2.21 0-3.31 0-1.18 0-2.44.08-3.62.16-1.26.08-2.52.08-3.78.16-.08 0-.16 0-.24 0-.87 0-1.73 0-2.6.08-.47 0-.95.16-1.42.16-.87 0-1.73-.08-2.6 0-2.05.16-4.1.32-6.22.48-1.34.08-2.6.16-3.94.24-1.18.08-2.36.24-3.62.32-1.18.16-2.36.32-3.62.4-1.5.16-2.99.4-4.49.56-1.42.16-2.76.24-4.17.48-1.58.24-3.23.56-4.8.87-.47.08-.95.16-1.02.72-.08.48-.16 1.03 0 1.51s.47 1.03.87 1.19c.55.24 1.18.16 1.81.16.87-.08 1.73-.24 2.6-.32 1.1-.16 2.28-.24 3.39-.4.95-.08 1.97-.16 2.91-.32s1.97-.32 2.91-.4c.79-.08 1.58-.08 2.36-.16 1.34-.16 2.68-.4 4.02-.56s2.76-.32 4.1-.4c1.26-.16 2.44-.24 3.7-.32 1.34-.08 2.68-.08 4.1-.16.08 0 .08 0 .16 0 .79-.16 1.65-.32 2.44-.32.63 0 1.34.16 1.97.16.71 0 1.42-.16 2.21-.16.87 0 1.73.08 2.6 0 .79 0 1.58-.16 2.44-.24.79-.08 1.58 0 2.44-.08.63 0 1.26-.16 1.81-.16.71 0 1.42.08 2.13.08 1.58.08 3.15.08 4.73.16.63 0 1.26 0 1.89.08.63 0 1.34.08 1.97.16 1.02 0 2.05 0 3.07 0 1.34 0 2.68 0 4.02 0 .47 0 .87.08 1.34.16.71.08 1.5.24 2.21.24.87.08 1.81 0 2.68.08 1.5.08 2.99.24 4.49.4 1.02.08 2.05.16 3.07.32.79.08 1.58.24 2.36.32.87.08 1.73.16 2.68.32 1.65.24 3.23.56 4.88.79.16 0 .47.16.47.32 0 .24-.08.64-.24.72-.79.64-1.73 1.19-2.52 1.75-.87.64-1.81 1.27-2.68 1.91-.39.32-.79.56-1.26.79-.87.56-1.73 1.03-2.6 1.51-1.89.72-1.65 2.22-1.5 3.89.08 0 0 0 0 0 0 .32-.08.72.08.95.24.56.79.95 1.42 1.11.32.08.71.16 1.02 0 .32-.08.55-.32.79-.56.39-.4.95-.79 1.1-1.27.32-1.03 1.02-1.59 1.73-2.22.63-.48 1.42-.79 2.13-1.27 1.02-.72 1.97-1.43 2.99-2.15.71-.48 1.42-.95 2.05-1.43.79-.56 1.58-1.27 2.36-1.75.39-.24 1.02-.32 1.5-.48.24-.08.39-.24.55-.32s.24-.16.39-.24c.39-.32.79-.56 1.1-.87.16-.16-.16-.79.47-.64 0 0 .08-.08.08-.16 0-.4-.16-.87 0-1.19.47-.72.39-1.43 0-2.07-.32-.48-.87-.87-1.34-1.19-.24-.16-.55-.08-.87-.16-.24-.08-.39-.32-.55-.32-1.02-.32-2.05-.48-2.99-.87-1.02-.4-1.89-1.03-2.91-1.43-.87-.4-1.73-.72-2.68-1.03-.63-.24-1.34-.4-1.97-.64-1.1-.4-2.21-.87-3.23-1.27-.87-.32-1.81-.72-2.68-1.03-.39-.16-.87-.24-1.34-.4-.71-.32-1.42-.72-2.21-1.03-.63-.32-1.18-.64-1.81-.87-.47-.24-1.02-.64-1.5-.56-.87.16-1.58.72-1.81 1.59 0 .08.08.24.16.32 0 .08 0 .16 0 .24-.55-.08-.39.32-.32.56 0 .24.24.48.24.72.16.79.79 1.11 1.42 1.35.55.16 1.02.24 1.58.4.39.08.79.24 1.18.4.16.08.32 0 .47 0 .39.16.71.32 1.1.48.71.32 1.42.64 2.13.95.79.32 1.58.48 2.36.79.87.32 1.65.64 2.44.95s1.42.56 2.05.72Z"/><path clip-path="url(#f)" d="M210.4 57.29c-.63-.24-1.26-.48-1.89-.72-.87-.32-1.65-.72-2.44-.95-.79-.32-1.58-.48-2.36-.79-.71-.24-1.42-.64-2.13-.95-.47-.16-.79-.32-1.18-.48-.16-.08-.32 0-.47 0-.39-.08-.79-.24-1.18-.4-.55-.16-1.02-.24-1.58-.4-.71-.24-1.34-.48-1.42-1.35-.08-.24-.24-.48-.24-.72s-.16-.64.32-.56c0-.08 0-.16 0-.24s-.16-.24-.16-.32c.32-.95 1.02-1.43 1.81-1.59.47-.08 1.02.32 1.5.56.63.24 1.26.56 1.81.87.71.32 1.42.72 2.21 1.03.39.16.87.24 1.34.4.95.32 1.81.64 2.68 1.03 1.1.4 2.13.87 3.23 1.27.63.24 1.34.4 1.97.64.87.32 1.81.64 2.68 1.03 1.02.48 1.89 1.03 2.91 1.43.95.4 1.97.56 2.99.87.24.08.39.24.55.32.32.08.63 0 .87.16.47.32 1.02.72 1.34 1.19.39.64.47 1.35 0 2.07-.16.32 0 .79 0 1.19 0 .08-.08.16-.08.16-.63-.08-.32.48-.47.64-.32.32-.71.56-1.1.87-.16.08-.24.16-.39.24s-.39.24-.55.32c-.47.16-1.1.16-1.5.48-.87.48-1.58 1.19-2.36 1.75-.71.48-1.34.95-2.05 1.43-1.02.72-1.97 1.43-2.99 2.15-.71.48-1.5.72-2.13 1.27-.71.56-1.5 1.19-1.73 2.22-.16.48-.71.87-1.1 1.27-.24.24-.47.48-.79.56s-.71 0-1.02 0c-.63-.16-1.1-.48-1.42-1.11-.16-.24-.08-.64-.08-.95 0 0 .08 0 0 0-.24-1.59-.39-3.1 1.5-3.89.87-.48 1.73-1.03 2.6-1.51.39-.24.87-.56 1.26-.79.87-.64 1.73-1.27 2.68-1.91.87-.56 1.73-1.11 2.52-1.75.16-.16.24-.48.24-.72 0-.08-.32-.24-.47-.32-1.65-.32-3.23-.56-4.88-.79-.87-.16-1.73-.16-2.68-.32-.79-.08-1.58-.24-2.36-.32-1.02-.08-2.05-.16-3.07-.32-1.5-.16-2.99-.32-4.49-.4-.87-.08-1.81 0-2.68-.08-.71-.08-1.5-.16-2.21-.24-.47-.08-.87-.08-1.34-.16-1.34 0-2.68 0-4.02 0-1.02 0-2.05 0-3.07 0-.63 0-1.34-.08-1.97-.16-.63 0-1.26 0-1.89-.08-1.58-.08-3.15-.08-4.73-.16-.71 0-1.42-.08-2.13-.08-.63 0-1.26.08-1.81.16-.79 0-1.58 0-2.44.08-.79.08-1.58.16-2.44.24-.87 0-1.73-.08-2.6 0-.71 0-1.42.16-2.21.16-.63 0-1.34-.16-1.97-.16-.79.08-1.65.24-2.44.32-.08 0-.08 0-.16 0-1.34.08-2.68.08-4.1.16-1.26.08-2.44.24-3.7.32-1.34.16-2.76.24-4.1.4s-2.68.4-4.02.56c-.79.08-1.58.08-2.36.16-.95.08-1.97.32-2.91.4-.95.16-1.97.24-2.91.32-1.1.16-2.28.24-3.39.4-.87.08-1.73.24-2.6.32-.63.08-1.26.08-1.81-.16-.39-.16-.71-.72-.87-1.19s-.08-1.03 0-1.51c.08-.64.55-.64 1.02-.72 1.58-.32 3.23-.64 4.8-.87 1.42-.24 2.76-.32 4.17-.48 1.5-.16 2.99-.4 4.49-.56 1.18-.16 2.36-.32 3.62-.4 1.18-.16 2.36-.24 3.62-.32 1.34-.08 2.6-.16 3.94-.24 2.05-.16 4.1-.32 6.22-.48.87-.08 1.73 0 2.6 0 .47 0 .95-.16 1.42-.16.87-.08 1.73-.08 2.6-.08.08 0 .16 0 .24 0 1.1-.08 2.36-.08 3.62-.16 1.18-.08 2.44-.08 3.62-.16 1.1 0 2.21 0 3.31 0 .79 0 1.65 0 2.44-.08.87 0 1.65-.08 2.52 0 1.65 0 3.31.08 4.88.08.79 0 1.65 0 2.44.08 1.65.08 3.23.16 4.88.24 1.89.08 3.78.24 5.59.4 1.1.08 2.21.24 3.31.32 1.65.16 3.31.16 5.04.32 1.42.08 2.84.32 4.25.4.63.08 1.18.08 1.81.16.08 0 .08-.08.16-.16Z"/></g></g></svg>