<svg xmlns="http://www.w3.org/2000/svg" width="98.09" height="98.5" stroke="#000" stroke-linecap="square" stroke-miterlimit="10" color-interpolation="auto"><defs><clipPath id="a"><path d="M0 0V98.5H98.09V0Z"/></clipPath><clipPath id="b" clip-path="url(#a)"><path d="M-245.04 498.28h1440v-810h-1440Z"/></clipPath><clipPath id="c" clip-path="url(#b)"><path d="M4.8 5H93.3V93.5H4.8Z"/></clipPath></defs><g><g fill="#fff" stroke="none"><path d="M24.02 45.08c-.51-.41-1.32-.31-1.83.2l-4.27 5.29-1.32-1.22c-.51-.51-1.32-.51-1.83 0s-.51 1.32 0 1.83c0 0 2.44 2.24 2.44 2.24.61.51 1.53.31 1.83-.1l5.09-6.41c.51-.61.71-1.22-.1-1.83Z" clip-path="url(#c)"/><path d="M68.98 57.29c-.71 0-1.22.61-1.22 1.22V90.96H7.44V7.54H49.45V24.43c0 .71.51 1.32 1.22 1.32H67.56v1.63c0 .71.61 1.22 1.22 1.22S70 27.99 70 27.38V24.43c0-.31-.1-.61-.41-.92L51.69 5.41c-.2-.31-.61-.41-.92-.41H6.22C5.51 5 5 5.61 5 6.22V92.28c0 .71.61 1.22 1.22 1.22H68.98c.71 0 1.22-.61 1.22-1.22V58.51c0-.71-.51-1.22-1.22-1.22Z" clip-path="url(#c)"/><path d="M61.25 31.35c0-.71-.61-1.22-1.22-1.22H29.72c-.71 0-1.22.61-1.22 1.22s.61 1.22 1.22 1.22H60.03c.71.1 1.22-.51 1.22-1.22Z" clip-path="url(#c)"/><path d="M29.72 36.64c-.71 0-1.22.61-1.22 1.22s.61 1.22 1.22 1.22H51.49c.71 0 1.22-.61 1.22-1.22s-.51-1.22-1.22-1.22H29.72Z" clip-path="url(#c)"/><path d="M24.02 28.29c-.51-.41-1.32-.31-1.83.2l-4.27 5.29-1.32-1.22c-.51-.51-1.32-.51-1.83 0s-.51 1.32 0 1.83c0 0 2.44 2.24 2.44 2.24.61.51 1.53.31 1.83-.1l5.09-6.41c.51-.61.61-1.22-.1-1.83Z" clip-path="url(#c)"/><path d="M24.02 61.25c-.51-.41-1.32-.31-1.83.2l-4.27 5.29-1.32-1.22c-.51-.51-1.32-.51-1.83 0s-.51 1.32 0 1.83c0 0 2.44 2.24 2.44 2.24.61.51 1.53.31 1.83-.1l5.09-6.41c.51-.51.61-1.22-.1-1.83Z" clip-path="url(#c)"/><path d="M92.38 28.09l-3.66-2.85 2.44-3.15c.51-.61 1.02-1.63-.1-2.54l-5.29-4.17c-.81-.71-2.14-.71-2.85.2l-2.44 3.15c-.2-.1-.51-.2-.71-.1-.31 0-.61.2-.81.51l-4.27 5.49c-.31.51-.31 1.12 0 1.53L58.61 46.61H29.72c-.71 0-1.22.61-1.22 1.22s.61 1.22 1.22 1.22H56.57l-3.05 3.97H29.72c-.71 0-1.22.61-1.22 1.22s.61 1.22 1.22 1.22H51.59l-5.8 7.63H29.72c-.71 0-1.22.61-1.22 1.22s.61 1.22 1.22 1.22H43.76l-2.54 3.26c0 0-.1.31-.2.71H29.72c-.71 0-1.22.61-1.22 1.22s.61 1.22 1.22 1.22H40.2c-1.02 3.26-2.34 7.83-2.34 7.83-.2.51 0 1.12.41 1.42s1.02.31 1.42.1c0 0 9.66-5.8 9.87-6L82.82 32.47c.2.1.41.2.71.2.41 0 .81-.2 1.02-.51l3.46-4.48 1.83 1.42L79.46 42.64c-.41.61-.31 1.32.2 1.83s1.32.31 1.83-.2L92.69 29.92c.41-.61.2-1.42-.31-1.83ZM41.21 77.53l1.83-6.1c.71.41 1.32.81 1.93 1.22.61.51 1.22 1.02 1.73 1.53l-5.49 3.36ZM83.33 29.82l-6-4.68 2.54-3.26 6 4.68-2.54 3.26Z" clip-path="url(#c)"/></g></g></svg>