<svg xmlns="http://www.w3.org/2000/svg" width="106.75" height="87.99" stroke="#000" stroke-linecap="square" stroke-miterlimit="10" color-interpolation="auto"><defs><clipPath id="a"><path d="M0 0V87.99H106.75V0Z"/></clipPath><clipPath id="b" clip-path="url(#a)"><path d="M-736.11 494.9h1440v-810h-1440Z"/></clipPath><clipPath id="c" clip-path="url(#b)"><path d="M5 4.99h96.75v78H5Z"/></clipPath></defs><g><g fill="#fff" stroke="none"><path d="M92.39 66.89H14.37c-3.31 0-6.02-2.58-6.25-5.83H98.63c-.23 3.25-2.94 5.83-6.25 5.83ZM58.32 79.87l-9.88-.01V69.99h9.88v9.88ZM14.37 8.1H92.39c3.46 0 6.27 2.82 6.27 6.28V57.95H8.1V14.38c0-3.46 2.81-6.28 6.27-6.28ZM92.39 5H14.37C9.2 5 5 9.21 5 14.38V60.61c0 5.17 4.2 9.38 9.37 9.38H45.34v9.87l-22.92-.02c0 0 0 0 0 0-.85 0-1.55.69-1.55 1.55s.69 1.55 1.55 1.55l22.92.02v.03H61.41v-.02l22.92.02c0 0 0 0 0 0 .85 0 1.55-.69 1.55-1.55s-.69-1.55-1.55-1.55l-22.92-.02V69.99H92.39c5.16 0 9.37-4.21 9.37-9.38V14.38c0-5.17-4.2-9.38-9.37-9.38" clip-path="url(#c)"/><path d="M43.17 44.08H84.35c.86 0 1.55-.69 1.55-1.55s-.69-1.55-1.55-1.55H43.17c-.86 0-1.55.69-1.55 1.55s.69 1.55 1.55 1.55" clip-path="url(#c)"/><path d="M43.17 49.34H63.76c.86 0 1.55-.69 1.55-1.55s-.69-1.55-1.55-1.55H43.17c-.86 0-1.55.69-1.55 1.55s.69 1.55 1.55 1.55" clip-path="url(#c)"/><path d="M23.64 53.23H35.25c1.54 0 2.79-1.25 2.79-2.79v-5c0-.86-.69-1.55-1.55-1.55s-1.55.69-1.55 1.55v4.69H23.95V39.12h9.48c.86 0 1.55-.69 1.55-1.55s-.69-1.55-1.55-1.55H23.64c-1.54 0-2.79 1.25-2.79 2.79V50.44c0 1.54 1.25 2.79 2.79 2.79" clip-path="url(#c)"/><path d="M37.71 37l-7.68 7.19-2.08-1.64c-.58-.46-1.42-.36-1.88.22s-.36 1.42.22 1.88l2.98 2.36c.24.19.54.29.83.29.33 0 .66-.12.91-.36l8.52-7.98c.54-.51.57-1.35.06-1.89s-1.35-.57-1.89-.06" clip-path="url(#c)"/><path d="M43.25 20.71H84.43c.86 0 1.55-.69 1.55-1.55s-.69-1.55-1.55-1.55H43.25c-.86 0-1.55.69-1.55 1.55s.69 1.55 1.55 1.55" clip-path="url(#c)"/><path d="M43.25 25.97H63.84c.86 0 1.55-.69 1.55-1.55s-.69-1.55-1.55-1.55H43.25c-.86 0-1.55.69-1.55 1.55s.69 1.55 1.55 1.55" clip-path="url(#c)"/><path d="M23.73 29.85H35.34c1.54 0 2.79-1.25 2.79-2.79v-5c0-.86-.69-1.55-1.55-1.55s-1.55.69-1.55 1.55v4.69H24.04V15.74h9.48c.86 0 1.55-.69 1.55-1.55s-.69-1.55-1.55-1.55H23.73c-1.54 0-2.79 1.25-2.79 2.79V27.06c0 1.54 1.25 2.79 2.79 2.79" clip-path="url(#c)"/><path d="M28.04 19.17c-.58-.46-1.42-.36-1.88.22s-.36 1.42.22 1.88l2.98 2.36c.24.19.54.29.83.29.33 0 .66-.12.91-.36l8.52-7.98c.54-.51.57-1.35.06-1.89s-1.35-.57-1.89-.06l-7.68 7.19-2.08-1.64" clip-path="url(#c)"/></g></g></svg>