<?xml version="1.0" encoding="UTF-8" standalone="no"?><svg xmlns="http://www.w3.org/2000/svg" xmlns:xlink="http://www.w3.org/1999/xlink" fill="#000000" height="500" preserveAspectRatio="xMidYMid meet" version="1.1" viewBox="0.0 -0.0 643.5 500.0" width="643.5" zoomAndPan="magnify">
 <defs>
  <clipPath id="clip1">
   <path d="m32 43h611.5v457h-611.5z"/>
  </clipPath>
 </defs>
 <g id="surface1">
  <g clip-path="url(#clip1)" id="change1_1">
   <path d="m392 43.199h-298.2c-33.999 0-61.8 27.801-61.8 61.801v333.2c0 34 27.801 61.8 61.801 61.8h325.2 162.7c34 0 61.8-27.8 61.8-61.8v-333.2c-0.1-34-27.9-61.801-61.8-61.801h-189.7" fill="#ffffff"/>
  </g>
  <g id="change2_1"><path d="m611.4 400.2c0 12.1-3.8 23.2-10.3 32.4-0.3-0.5-0.6-1-1-1.4l-226.5-208.1 219.5-194.1c0.7-0.699 1.2-1.5 1.4-2.398 10.4 10.296 16.9 24.5 16.9 40.296zm-56.6 56.6h-487.9c-15.798 0-30.099-6.5-40.4-17 0.699-0.2 1.398-0.5 2-1.1l227.4-208.8 51.5 45.5c1 0.9 2.2 1.3 3.4 1.3s2.4-0.4 3.4-1.3l51.5-45.5 227.4 208.8c0.6 0.5 1.3 0.9 2 1.1-10.2 10.5-24.5 17-40.3 17zm-544.5-56.6v-333.3c0-15.701 6.5-30.002 16.898-40.298 0.301 0.898 0.699 1.699 1.403 2.398l219.6 194-226.6 208.2c-0.498 0.4-0.799 0.9-0.998 1.4-6.5-9.2-10.301-20.4-10.301-32.4zm544.5-389.9c12.1 0 23.4 3.898 32.6 10.398-0.4 0.199-0.8 0.301-1.1 0.602l-275.4 243.4-275.5-243.4c-0.298-0.3-0.701-0.402-1.099-0.601 9.199-6.5 20.5-10.398 32.597-10.398zm0-10.301h-487.9c-36.9 0-66.9 30-66.9 66.898v333.2c0 36.9 30 66.9 66.898 66.9h487.9c36.9 0 66.9-30 66.9-66.9v-333.2c0-36.9-30-66.9-66.9-66.9" fill="#0f0e0c"/></g>
 </g>
</svg>