<svg xmlns="http://www.w3.org/2000/svg" width="404.44" height="71.5" stroke="#000" stroke-linecap="square" stroke-miterlimit="10" color-interpolation="auto"><defs><clipPath id="a"><path d="M0 0V71.5H404.44V0Z"/></clipPath><clipPath id="b" clip-path="url(#a)"><path d="M-305.32 241.65h1440v-810h-1440Z"/></clipPath><clipPath id="e" clip-path="url(#b)"><path d="M4.97 5h394.5V66.5H4.97Z"/></clipPath><clipPath id="c"><path d="M0 0V71.5H404.44V0Z"/></clipPath><clipPath id="d" clip-path="url(#c)"><path d="M-305.32 241.65h1440v-810h-1440Z"/></clipPath><clipPath id="f" clip-path="url(#d)"><path d="M4.97 5h394.5V66.5H4.97Z"/></clipPath></defs><g><g fill="#F9C041" stroke="none" stroke-linecap="butt" stroke-miterlimit="4" stroke-width="1.5"><path d="M392.01 64.61H12.43c-3.03 0-5.53-2.5-5.53-5.53V12.42c0-3.03 2.5-5.53 5.53-5.53H391.93c3.03 0 5.53 2.5 5.53 5.53V59c.08 3.11-2.43 5.61-5.46 5.61" clip-path="url(#e)"/><path fill="#FBF3E4" d="M392.01 8.56c2.12 0 3.87 1.74 3.87 3.86V59.08c0 2.12-1.74 3.86-3.87 3.86H12.43c-2.12 0-3.86-1.74-3.86-3.86V12.42c0-2.12 1.74-3.86 3.86-3.86H392.01m0-3.56H12.43C8.33 5 5 8.33 5 12.42V59.08c0 4.09 3.33 7.42 7.43 7.42H392.01c4.09 0 7.43-3.33 7.43-7.42V12.42c0-4.09-3.33-7.42-7.43-7.42" clip-path="url(#f)"/></g></g></svg>