<svg xmlns="http://www.w3.org/2000/svg" width="80.63" height="90.16" stroke="#000" stroke-linecap="square" stroke-miterlimit="10" color-interpolation="auto"><defs><clipPath id="a"><path d="M0 0V90.16H80.63V0Z"/></clipPath><clipPath id="b" clip-path="url(#a)"><path d="M-1016.51 492.63h1440v-810h-1440Z"/></clipPath><clipPath id="c" clip-path="url(#b)"><path d="M4.23 5h72V85.25h-72Z"/></clipPath></defs><g><g fill="#fff" stroke="none"><path d="M70.42 72.27V66.98c.01-.21-.04-.41-.14-.6l-5.08-9.8c.42-.6.63-1.27.64-2V35.6c0-.73-.22-1.4-.64-2l5.08-9.82c.1-.19.14-.4.14-.62V17.88c.26-.05.52-.12.77-.21l.5-.19.71-.36.66-.44.6-.52.54-.59.46-.65.38-.71.29-.75.19-.78.1-.79 0-.8-.1-.79-.19-.78-.29-.75-.38-.71-.46-.66-.53-.59-.6-.52-.66-.45-.71-.36-.75-.27-.78-.18-.79-.08-.8.02-.79.11-.77.21-.74.3-.7.39-.64.47-.58.55-.51.62-.43.67-.35.72-.25.76-.16.78-.06.8.03.8.13.79.23.77.32.73.4.69.49.63.56.57.62.5.68.42.73.33.76.24.26 5.02-4.8 9.26c-.25-.02-.49-.02-.74 0H55.89V28.52c.26-.05.52-.12.77-.21l.5-.19.71-.36.66-.44.6-.52.53-.59.46-.65.37-.7.28-.74.19-.77.1-.79v-.8l-.1-.79-.19-.77-.28-.74-.37-.7-.46-.65-.53-.59-.6-.52-.66-.44-.71-.36-.75-.27-.77-.18-.79-.08-.79.02-.79.11-.77.21-.74.3-.69.39-.64.47-.58.55-.51.61-.43.67-.35.72-.25.75-.16.78-.06.8.03.8.13.79.22.76.32.73.4.69.48.63.56.57.62.5.68.42.72.33.76.24.26 3.57H41.6V21.13c.26-.05.52-.12.77-.21l.5-.18.71-.36.66-.44.6-.52.53-.59.46-.65.38-.7.29-.74.19-.77.1-.79 0-.8-.1-.79-.19-.77-.28-.74-.37-.7-.46-.65-.53-.59-.6-.52-.66-.44-.71-.36-.75-.27-.78-.18-.79-.08-.8.02-.79.11-.77.21-.74.3-.69.39-.64.47-.58.55-.51.61-.43.67-.34.72-.25.75-.16.78-.06.8.03.8.13.79.23.76.32.73.4.69.48.63.56.57.62.5.68.42.72.33.76.24L39 32.03H27.33V28.52c.26-.05.51-.12.77-.21l.5-.19.71-.36.66-.44.6-.52.53-.59.46-.65.37-.7.28-.74.19-.77.1-.79v-.8l-.1-.79-.19-.77-.28-.74-.37-.7-.46-.65-.53-.59-.6-.52-.66-.44-.71-.36-.75-.27-.78-.18-.79-.08-.79.02-.79.11-.77.21-.74.3-.69.39-.64.47-.58.55-.51.61-.43.67-.35.72-.25.75-.16.78-.07.8.03.8.13.79.22.76.32.73.4.69.48.63.56.57.62.5.68.42.72.33.76.24.26 3.57H18.32c-.24-.02-.49-.02-.74 0L12.8 22.85V17.88c.26-.05.52-.12.77-.21l.5-.19.71-.36.66-.44.6-.52.53-.59.46-.65.37-.7.28-.74.19-.77.1-.79v-.8l-.1-.79-.19-.77-.28-.74-.37-.7-.46-.65-.53-.59-.6-.52-.66-.44-.71-.36-.75-.27-.78-.18-.79-.08-.79.02-.79.11-.77.21-.73.3-.69.39-.64.47-.58.55-.51.61-.43.67-.34.72-.25.75-.16.78-.06.79.03.8.13.79.22.76.32.73.4.69.48.63.56.57.62.5.68.42.72.33.76.24.26 5.34c0 .22.06.43.16.62l5.05 9.8c-.42.6-.63 1.26-.64 2V54.53c.01.73.22 1.4.64 2l-5.05 9.86c-.11.19-.16.39-.16.6v5.29c-.26.05-.52.12-.77.21l-.5.19-.71.36-.66.44-.6.52-.53.59-.46.65-.37.7-.29.74-.19.77-.1.79v.8l.1.79.19.77.28.74.37.7.46.65.53.59.6.52.66.44.71.36.75.27.78.18.79.08.79-.02.79-.11.77-.21.73-.3.69-.39.64-.47.58-.55.51-.61.43-.67.35-.72.25-.75.16-.78.07-.79-.03-.8-.13-.79-.22-.76-.32-.73-.4-.69-.48-.63-.56-.57-.62-.5-.68-.42-.72-.33-.76-.24-.26-5.02 4.78-9.26c.24.03.49.03.74 0h6.39v3.51c-.26.05-.51.12-.77.21l-.5.19-.71.36-.66.44-.6.52-.53.59-.46.65-.37.7-.28.74-.19.77-.1.79v.8l.1.79.19.77.29.74.37.7.46.65.53.59.6.52.66.44.71.36.75.27.78.18.79.08.79-.02.79-.11.77-.21.73-.3.69-.39.64-.47.58-.55.51-.61.43-.67.35-.72.25-.75.16-.78.07-.79-.03-.8-.13-.79-.22-.76-.32-.73-.4-.69-.48-.63-.56-.57-.62-.5-.68-.42-.72-.33-.76-.24-.26-3.49H39V69.04c-.26.05-.52.12-.77.21l-.5.19-.71.36-.66.45-.6.52-.54.59-.46.65-.38.71-.29.75-.19.78-.1.79 0 .8.1.79.19.78.29.75.38.71.46.65.53.59.6.52.66.45.71.36.75.27.78.18.79.08.8-.02.79-.11.77-.21.74-.3.7-.39.64-.47.58-.55.51-.62.43-.67.35-.72.25-.76.16-.78.06-.8-.03-.8-.13-.79-.23-.77-.32-.73-.4-.69-.49-.63-.56-.57-.62-.5-.68-.42-.73-.33-.76-.24-.26-10.97H53.26v3.51c-.26.05-.52.12-.77.21l-.5.19-.71.36-.66.44-.6.52-.53.59-.46.65-.37.7-.28.74-.19.77-.1.79 0 .8.1.79.19.77.28.74.37.7.46.65.53.59.6.52.66.44.71.36.75.27.77.18.79.08.79-.02.79-.11.77-.21.74-.3.69-.39.64-.47.58-.55.51-.61.43-.67.34-.72.25-.75.16-.78.07-.79-.03-.8-.13-.79-.22-.77-.32-.73-.4-.69-.48-.63-.56-.57-.62-.5-.68-.42-.72-.33-.76-.24-.26-3.57h6.39c.25.03.49.03.74 0l4.8 9.26v4.89c-.26.05-.52.12-.77.21l-.5.19-.71.36-.66.44-.6.52-.53.59-.46.65-.38.7-.29.74-.19.77-.1.79 0 .8.1.79.19.77.28.74.37.7.46.65.53.59.6.52.66.45.71.36.75.27.78.18.79.08.79-.02.79-.11.77-.21.74-.3.69-.39.64-.47.58-.55.51-.61.43-.67.35-.72.25-.75.16-.78.06-.79-.03-.8-.13-.79-.23-.76-.32-.73-.4-.69-.48-.63-.56-.57-.62-.5-.68-.42-.72-.33-.76-.24ZM54.5 64.13l.51 0 .76.15.71.29.64.43.55.54.43.64.29.71.15.76-.01.77-.16.76-.3.71-.44.64-.55.54-.65.42-.72.28-.76.14-.77-.02-.75-.17-.7-.31-.63-.45-.53-.56-.41-.66-.27-.72-.12-.76c0-.77.1-1.25.29-1.73l.47-.89c.71-.72 1.12-1.01 1.59-1.21l.95-.3.43-.01ZM40.23 71.54l1 .1c.94.4 1.36.68 1.72 1.04l.64.78c.39.95.48 1.44.48 1.96l-.1 1.01c-.39.95-.67 1.36-1.04 1.73l-.78.64c-.95.39-1.44.49-1.95.49l-1-.1c-.94-.39-1.36-.67-1.72-1.04l-.64-.78c-.39-.95-.49-1.44-.49-1.95l.02-.52.18-.75.32-.7.46-.62.57-.52.66-.4.73-.26.76-.11.18.01ZM25.94 64.13l1.01.09c.95.39 1.38.67 1.74 1.04l.65.79c.4.95.5 1.45.5 1.97l-.1 1.01c-.39.96-.67 1.38-1.04 1.74l-.79.65c-.95.4-1.45.49-1.96.49l-1.01-.1c-.95-.4-1.37-.68-1.73-1.05l-.64-.79c-.39-.96-.49-1.45-.48-1.97l.02-.51.18-.75.32-.7.45-.62.57-.52.66-.4.72-.26.76-.11.18.01Zm43.09 18.4l-1-.1c-.95-.39-1.36-.67-1.73-1.03l-.64-.78c-.4-.95-.5-1.44-.5-1.95l.09-1.01c.38-.95.66-1.37 1.01-1.74l.77-.65c.94-.41 1.43-.51 1.94-.52l1.01.08c.95.38 1.38.65 1.75 1l.66.77c.41.94.52 1.43.54 1.94l-.01.51-.15.75-.3.71-.43.64-.55.54-.64.42-.71.28-.75.14-.34 0ZM40.31 10.87l1.01.1c.95.4 1.37.68 1.74 1.04l.64.79c.39.96.49 1.45.49 1.97l-.1 1.01c-.4.95-.68 1.38-1.04 1.74l-.79.64c-.95.39-1.45.49-1.96.49l-1.01-.1c-.95-.4-1.37-.68-1.73-1.05l-.64-.79c-.39-.96-.49-1.45-.48-1.97l.1-1.01c.39-.95.67-1.37 1.04-1.74l.78-.64c.95-.39 1.45-.49 1.96-.49ZM58.44 22.15l-.1 1.01c-.39.95-.67 1.37-1.03 1.73l-.78.64c-.95.39-1.44.49-1.95.49l-1.01-.1c-.95-.39-1.36-.67-1.72-1.04l-.64-.78c-.39-.95-.49-1.44-.49-1.96l.1-1.01c.39-.95.67-1.37 1.03-1.73l.78-.64c.95-.39 1.44-.49 1.95-.49l1 .1c.95.39 1.36.67 1.73 1.04l.64.78c.39.95.49 1.44.49 1.96ZM17.38 54.55V35.6c0-.26.09-.48.27-.66l.4-.28H62.28c.26 0 .48.09.66.28l.27.4v19.2c0 .26-.09.48-.27.66l-.4.28H18.32c-.26 0-.48-.09-.66-.28l-.27-.4ZM69.13 15.38l-1-.1c-.94-.4-1.36-.68-1.72-1.04l-.64-.78c-.39-.95-.48-1.44-.48-1.96l.1-1.01c.39-.95.67-1.37 1.04-1.73l.78-.64c.95-.39 1.44-.49 1.95-.49l1 .1c.94.39 1.36.67 1.72 1.04l.64.78c.39.95.49 1.44.49 1.95l-.03.51-.17.75-.32.7-.45.62-.56.52-.65.4-.72.26-.75.12-.23 0ZM26.02 18.27l1 .1c.95.39 1.36.67 1.73 1.04l.64.78c.39.95.49 1.44.49 1.96l-.1 1.01c-.39.95-.67 1.37-1.03 1.73l-.78.64c-.95.39-1.44.49-1.95.49l-1-.1c-.95-.39-1.36-.67-1.73-1.04l-.64-.78c-.39-.95-.49-1.44-.49-1.96l.1-1.01c.39-.95.67-1.37 1.03-1.73l.78-.64c.95-.39 1.44-.49 1.95-.49ZM11.49 15.38l-1.01-.1c-.95-.39-1.36-.67-1.72-1.04l-.64-.78c-.39-.95-.49-1.44-.49-1.96l.1-1.01c.39-.95.67-1.37 1.03-1.73l.78-.64c.95-.39 1.44-.49 1.95-.49l1 .1c.95.39 1.36.67 1.73 1.04l.64.78c.39.95.49 1.44.49 1.96l-.1 1.01c-.39.95-.67 1.37-1.03 1.73l-.78.64c-.95.39-1.44.49-1.95.49Zm0 67.15l-1.01-.09c-.95-.39-1.37-.66-1.73-1.02l-.65-.78c-.4-.95-.5-1.44-.51-1.95l.09-1.01c.38-.95.65-1.38 1.01-1.75l.77-.65c.94-.41 1.43-.52 1.94-.53l1.01.08c.95.37 1.38.64 1.75 1l.66.77c.41.94.53 1.43.54 1.95l-.01.52-.16.76-.3.71-.44.64-.56.54-.65.42-.72.28-.76.13Zm0 0" clip-path="url(#c)"/><path d="M40.31 53.13c.17 0 .34-.03.49-.1s.3-.16.42-.28.21-.26.28-.42.1-.32.1-.5V46.38h8.32c.17 0 .34-.03.5-.09s.3-.16.43-.28.22-.26.29-.42.1-.33.1-.5V38.34c0-.18-.03-.34-.09-.51s-.16-.31-.28-.43-.27-.22-.43-.29-.33-.1-.51-.09H40.31c-.17 0-.34.03-.51.09s-.31.16-.43.29-.22.27-.28.43-.1.33-.09.51V51.83c0 .17.03.34.1.5s.16.3.29.42.27.22.43.28.33.1.5.09Zm1.29-9.36V39.66h7.01v4.11H41.6Z" clip-path="url(#c)"/><path d="M23.07 53.07h.44c.28 0 .53-.07.75-.23s.39-.37.48-.63l1.23-3.29H30.7l1.21 3.41c.1.26.26.47.48.62s.48.24.75.23c.15.02.29.02.44 0 .16-.06.31-.15.44-.27s.23-.26.3-.42.12-.33.13-.5-.02-.35-.07-.51L29.56 38.02c-.09-.26-.25-.48-.48-.64s-.48-.24-.76-.24-.53.08-.76.24-.39.37-.48.64L22.28 51.37c-.06.17-.08.34-.07.51s.05.34.13.5.18.3.3.42.28.21.44.27Zm6.69-6.85H26.9l1.41-3.99 1.45 3.99Z" clip-path="url(#c)"/><path d="M57.09 53.13c.17 0 .34-.03.5-.1s.3-.16.42-.28.22-.26.29-.42.1-.33.11-.5V38.34c0-.17-.03-.34-.1-.5s-.16-.3-.28-.43-.27-.22-.43-.29-.33-.1-.5-.1-.34.03-.5.1-.3.16-.43.29-.22.27-.28.43-.1.33-.1.5V51.83c0 .17.03.34.1.5s.16.3.29.42.27.22.43.28.33.1.5.09Z" clip-path="url(#c)"/></g></g></svg>