<?xml version="1.0" encoding="UTF-8"?><svg xmlns="http://www.w3.org/2000/svg" color-interpolation="auto" height="7.5" stroke="#000" stroke-linecap="square" stroke-miterlimit="10" width="7.5"><defs><clipPath id="a"><path d="M0 0V7.5H7.5V0Z"/></clipPath><clipPath clip-path="url(#a)" id="b"><path d="M-97.5 316.28h1440v-810H-97.5Z"/></clipPath><clipPath clip-path="url(#b)" id="c"><path d="M-97.5-493.72h1440v810H-97.5Z"/></clipPath></defs><g><g color-interpolation="linearRGB" fill="#fff" stroke="#fff"><path clip-path="url(#c)" d="M7.5 3.75c0 .5-.1.98-.29 1.44s-.46.86-.81 1.22-.76.62-1.22.81-.94.29-1.44.29-.98-.1-1.44-.29-.86-.46-1.22-.81S.48 5.64.29 5.19 0 4.25 0 3.75.1 2.77.29 2.31.75 1.45 1.1 1.1 1.86.48 2.31.29 3.25 0 3.75 0s.98.1 1.44.29.86.46 1.22.81.62.76.81 1.22.29.94.29 1.44Z" stroke="none"/></g></g></svg>